<svg id="Layer_1" data-name="Layer 1" xmlns="http://www.w3.org/2000/svg" viewBox="0 0 108.85 55.8"><defs><style>.cls-1{fill:#00b2e2;}.cls-2{fill:#0076bc;}.cls-3{fill:#20285c;}.cls-4{fill:#00483a;}</style></defs><title>hbku</title><polygon class="cls-1" points="90.22 17.68 90.22 17.68 90.22 0.05 81.4 8.86 90.22 17.68"/><polygon class="cls-2" points="72.58 0.05 72.58 17.68 81.4 8.86 72.58 0.05"/><polygon class="cls-1" points="108.85 0.05 91.21 0.05 100.03 8.86 108.85 0.05"/><polygon class="cls-2" points="91.21 0.05 91.21 17.68 100.03 8.86 91.21 0.05"/><polygon class="cls-2" points="108.85 36.31 108.85 36.31 108.85 18.68 100.03 27.49 108.85 36.31"/><polygon class="cls-1" points="100.03 27.49 91.21 36.31 108.85 36.31 100.03 27.49"/><polygon class="cls-2" points="91.21 18.68 91.21 36.31 100.03 27.49 91.21 18.68"/><polygon class="cls-2" points="90.22 18.68 72.58 18.68 81.4 27.49 90.22 18.68"/><polygon class="cls-1" points="72.58 18.68 72.58 36.31 81.4 27.49 72.58 18.68"/><polygon class="cls-3" points="104.3 15.8 93.1 15.8 91.21 17.68 108.85 17.68 100.03 8.86 98.7 10.2 104.3 15.8"/><polygon class="cls-3" points="85.67 15.8 74.47 15.8 72.58 17.68 90.22 17.68 81.4 8.86 80.07 10.2 85.67 15.8"/><polygon class="cls-3" points="85.67 34.42 74.47 34.42 72.58 36.31 90.22 36.31 81.4 27.49 80.07 28.82 85.67 34.42"/><polygon class="cls-3" points="106.96 34.42 93.1 34.42 91.21 36.31 108.85 36.31 106.96 34.42"/><rect class="cls-3" x="119.67" y="37.65" width="1.88" height="1.88" transform="translate(-12.53 96.68) rotate(-45.02)"/><rect class="cls-3" x="106.92" y="26.5" width="1.89" height="1.88" transform="translate(-8.41 84.35) rotate(-45)"/><rect class="cls-3" x="119.68" y="19.03" width="1.88" height="1.88" transform="translate(0.61 91.19) rotate(-45)"/><polygon class="cls-3" points="2.68 27.7 2.68 25.61 0.98 25.61 0.98 27.7 0 27.7 0 22.69 0.98 22.69 0.98 24.74 2.68 24.74 2.68 22.69 3.65 22.69 3.65 27.7 2.68 27.7"/><path class="cls-3" d="M28.27,27.66L28,26.77H26.19l-0.3.89h-1l1.82-5h0.77l1.83,5h-1ZM27.1,24.12l-0.63,1.82h1.25Z" transform="translate(-20.59 0.05)"/><polygon class="cls-3" points="12.87 27.7 12.87 24.78 11.92 26.68 11.25 26.68 10.29 24.78 10.29 27.7 9.31 27.7 9.31 22.69 10.28 22.69 11.59 25.4 12.89 22.69 13.85 22.69 13.85 27.7 12.87 27.7"/><path class="cls-3" d="M38.47,27.66l-0.3-.89H36.39l-0.3.89h-1l1.82-5h0.77l1.83,5h-1Zm-1.17-3.53-0.63,1.82h1.25Z" transform="translate(-20.59 0.05)"/><path class="cls-3" d="M43.24,27.18a1.83,1.83,0,0,1-1.32.48H40.1v-5h1.81a1.83,1.83,0,0,1,1.32.48,2.53,2.53,0,0,1,.51,2,2.62,2.62,0,0,1-.51,2m-0.68-3.35a0.87,0.87,0,0,0-.73-0.31H41.08v3.26h0.74a0.87,0.87,0,0,0,.73-0.31,2.21,2.21,0,0,0,.21-1.34,2,2,0,0,0-.21-1.3" transform="translate(-20.59 0.05)"/><path class="cls-3" d="M48.64,27.66h-2.1v-5h2a1.37,1.37,0,0,1,1.55,1.41,1.16,1.16,0,0,1-.62,1,1.17,1.17,0,0,1,.69,1.13,1.38,1.38,0,0,1-1.53,1.44m-0.16-4.14h-1v1.16h1a0.58,0.58,0,1,0,0-1.16m0.06,2h-1v1.23h1a0.62,0.62,0,1,0,0-1.23" transform="translate(-20.59 0.05)"/><rect class="cls-3" x="30.58" y="22.69" width="0.98" height="5.01"/><polygon class="cls-3" points="35.69 27.7 33.7 24.63 33.7 27.7 32.73 27.7 32.73 22.69 33.6 22.69 35.59 25.76 35.59 22.69 36.56 22.69 36.56 27.7 35.69 27.7"/><polygon class="cls-3" points="42.28 27.7 40.99 25.43 40.34 26.2 40.34 27.7 39.36 27.7 39.36 22.69 40.34 22.69 40.34 24.88 42.11 22.69 43.3 22.69 41.64 24.68 43.42 27.7 42.28 27.7"/><polygon class="cls-3" points="46.72 27.7 46.72 25.61 45.02 25.61 45.02 27.7 44.05 27.7 44.05 22.69 45.02 22.69 45.02 24.74 46.72 24.74 46.72 22.69 47.7 22.69 47.7 27.7 46.72 27.7"/><path class="cls-3" d="M72.31,27.66L72,26.77H70.23l-0.3.89h-1l1.82-5H71.5l1.83,5h-1Zm-1.17-3.53-0.63,1.82h1.25Z" transform="translate(-20.59 0.05)"/><polygon class="cls-3" points="53.35 27.7 53.35 22.69 54.33 22.69 54.33 26.83 56.61 26.83 56.61 27.7 53.35 27.7"/><rect class="cls-3" x="57.4" y="22.69" width="0.98" height="5.01"/><polygon class="cls-3" points="60.53 23.57 60.53 24.8 62.5 24.8 62.5 25.67 60.53 25.67 60.53 27.7 59.55 27.7 59.55 22.69 62.85 22.69 62.85 23.57 60.53 23.57"/><path class="cls-3" d="M87.15,27.66l-0.29-.89H85.07l-0.3.89h-1l1.82-5h0.77l1.83,5h-1ZM86,24.12l-0.63,1.82h1.25Z" transform="translate(-20.59 0.05)"/><path class="cls-3" d="M51.39,36.29a1.74,1.74,0,0,1-1.84-1.76V31.24h1V34.5a0.87,0.87,0,1,0,1.74,0V31.24h1v3.29a1.75,1.75,0,0,1-1.85,1.76" transform="translate(-20.59 0.05)"/><polygon class="cls-3" points="36.69 36.3 34.7 33.22 34.7 36.3 33.73 36.3 33.73 31.29 34.6 31.29 36.58 34.36 36.58 31.29 37.56 31.29 37.56 36.3 36.69 36.3"/><rect class="cls-3" x="38.73" y="31.29" width="0.98" height="5.01"/><polygon class="cls-3" points="42.7 36.3 41.97 36.3 40.31 31.29 41.33 31.29 42.34 34.55 43.34 31.29 44.36 31.29 42.7 36.3"/><polygon class="cls-3" points="44.97 36.3 44.97 31.29 48.27 31.29 48.27 32.16 45.94 32.16 45.94 33.34 47.92 33.34 47.92 34.21 45.94 34.21 45.94 35.43 48.27 35.43 48.27 36.3 44.97 36.3"/><path class="cls-3" d="M72.48,36.25l-1-2H70.8v2h-1v-5h2a1.51,1.51,0,0,1,1.63,1.53,1.35,1.35,0,0,1-.92,1.31l1.12,2.16H72.48Zm-0.76-4.14H70.8v1.32h0.92a0.66,0.66,0,1,0,0-1.32" transform="translate(-20.59 0.05)"/><path class="cls-3" d="M75.8,36.29A2.36,2.36,0,0,1,74,35.63L74.6,35a1.64,1.64,0,0,0,1.21.42c0.58,0,.89-0.22.89-0.62a0.56,0.56,0,0,0-.15-0.42,0.76,0.76,0,0,0-.44-0.18l-0.61-.08a1.7,1.7,0,0,1-1-.41,1.32,1.32,0,0,1-.36-1,1.54,1.54,0,0,1,1.75-1.52,2.14,2.14,0,0,1,1.62.58l-0.62.61a1.4,1.4,0,0,0-1-.35,0.66,0.66,0,0,0-.77.63,0.48,0.48,0,0,0,.15.36,0.86,0.86,0,0,0,.46.2l0.59,0.08a1.65,1.65,0,0,1,1,.39,1.4,1.4,0,0,1,.39,1.06,1.62,1.62,0,0,1-1.86,1.52" transform="translate(-20.59 0.05)"/><rect class="cls-3" x="57.99" y="31.29" width="0.98" height="5.01"/><polygon class="cls-3" points="62.05 32.16 62.05 36.3 61.07 36.3 61.07 32.16 59.76 32.16 59.76 31.29 63.35 31.29 63.35 32.16 62.05 32.16"/><polygon class="cls-3" points="66.07 34.24 66.07 36.3 65.09 36.3 65.09 34.24 63.59 31.29 64.65 31.29 65.59 33.31 66.51 31.29 67.57 31.29 66.07 34.24"/><path class="cls-3" d="M46.81,12.86L46,13.69l2.76,2.77h-6V9.84L41.58,11v5.46H37.81v-3.6L36.63,14v2.45H32.17a2.48,2.48,0,0,0,.69-2,2,2,0,0,0-2.16-1.78,2.07,2.07,0,0,0-2.18,1.78,2.48,2.48,0,0,0,.7,2h-4.5V12.87H22.63c-1.29,0-2,.79-2,2.41a2.09,2.09,0,0,0,2,2.35H51.58Zm-23.36,3.6H22.7a1.05,1.05,0,0,1-.85-1.18A1.08,1.08,0,0,1,22.7,14h0.75v2.47Zm7.24-.28a1.71,1.71,0,0,1-.9-1.64,0.88,0.88,0,0,1,.9-0.77,0.91,0.91,0,0,1,.89.77,1.68,1.68,0,0,1-.89,1.64" transform="translate(-20.59 0.05)"/><rect class="cls-3" x="46.35" y="10.72" width="1.17" height="1.16" transform="translate(-14.83 36.56) rotate(-45.02)"/><rect class="cls-3" x="37.54" y="18.58" width="1.17" height="1.16" transform="translate(-22.97 32.63) rotate(-45.02)"/><rect class="cls-3" x="35.89" y="18.56" width="1.17" height="1.15" transform="translate(-23.44 31.44) rotate(-45)"/><rect class="cls-3" x="30.11" y="10.74" width="1.17" height="1.16" transform="translate(-19.6 25.08) rotate(-45.02)"/><rect class="cls-3" x="23.3" y="10.72" width="1.17" height="1.16" transform="translate(-21.59 20.24) rotate(-45)"/><rect class="cls-3" x="21.65" y="10.72" width="1.17" height="1.16" transform="translate(-22.07 19.08) rotate(-45.02)"/><path class="cls-3" d="M72.53,7.74A1.62,1.62,0,0,0,74,7a1.64,1.64,0,0,0,1.5.76c1.38,0,2.15-1,2.15-2.55s-0.78-2.56-2.15-2.56a2.13,2.13,0,0,0-2.15,2.24c0,0.67,0,1.69-1.07,1.69H68.34l1.28-1.12a2.78,2.78,0,0,0-5.55,0l1.27,1.13H60.55V3H58.47c-1.29,0-2,.79-2,2.41a2.09,2.09,0,0,0,2,2.35H72.53Zm2.94-4c0.51,0,.86.37,0.86,1.5S76,6.66,75.47,6.66s-0.85-.37-0.85-1.44,0.34-1.49.85-1.49M59.28,6.57H58.54a1.05,1.05,0,0,1-.85-1.18,1.08,1.08,0,0,1,.85-1.29h0.75V6.57Zm6.13-1.45a1.46,1.46,0,0,1,2.85,0L66.84,6.38c-0.32-.26-1.07-0.93-1.43-1.27" transform="translate(-20.59 0.05)"/><polygon class="cls-3" points="67.52 7.79 62.78 3.07 61.95 3.9 64.69 6.62 59.61 6.62 59.61 0 58.42 1.15 58.42 7.79 67.52 7.79"/><rect class="cls-3" x="83.61" y="8.67" width="1.17" height="1.15" transform="translate(-2.5 62.25) rotate(-44.97)"/><path class="cls-3" d="M83.39,12.85l-0.83.83,2.78,2.77H80.1c-0.62,0-.93-0.2-0.93-0.63A2.18,2.18,0,0,0,77,13.39c-1.35,0-2.11,1-2.19,2.43-0.05.61-.65,0.6-1.14,0.63H70.44v-3.6L69.26,14v2.45H67.12v1.18h6.94a2.52,2.52,0,0,0,1.11-.23A2,2,0,0,0,77,18.5a1.94,1.94,0,0,0,1.87-1.14,3,3,0,0,0,1.27.27h8ZM77,17.33c-0.51,0-.86-0.36-0.86-1.41s0.34-1.44.86-1.44,0.86,0.36.86,1.47-0.34,1.38-.86,1.38" transform="translate(-20.59 0.05)"/><path class="cls-3" d="M64.32,17.63V12.87L63.13,14v2.45H59.86a1,1,0,0,1-1.14-.88V12.87H57.45v4.47a0.8,0.8,0,0,1-.89.94,0.82,0.82,0,0,1-.92-0.94V12.87H54.38v4.5a2,2,0,0,0,2,2.11,2.25,2.25,0,0,0,.27,0,2,2,0,0,0,2-2.1v0a2.11,2.11,0,0,0,1,.29h4.61Z" transform="translate(-20.59 0.05)"/><rect class="cls-3" x="55.94" y="10.72" width="1.17" height="1.16" transform="translate(-12.03 43.33) rotate(-45)"/><rect class="cls-3" x="63.14" y="18.58" width="1.17" height="1.16" transform="translate(-15.44 50.79) rotate(-45.07)"/><rect class="cls-3" x="59.36" y="0.78" width="1.17" height="1.15" transform="translate(-3.97 42.85) rotate(-45.03)"/><rect class="cls-3" x="57.71" y="0.78" width="1.17" height="1.15" transform="translate(-4.49 41.65) rotate(-44.98)"/><path class="cls-4" d="M54.91,43.14a0.3,0.3,0,1,0,0-.59,0.3,0.3,0,0,0-.3.29,0.29,0.29,0,0,0,.3.3" transform="translate(-20.59 0.05)"/><path class="cls-4" d="M55.44,44.11A1.24,1.24,0,0,0,54.1,45.3a1.22,1.22,0,0,0,.33.88H51.24a1.69,1.69,0,0,0,.11-0.81,1.3,1.3,0,0,0-1.65-1.18,2.51,2.51,0,0,0-1.84,1.67l0.08-2.6A2.29,2.29,0,0,1,48,42.74l-0.65.32a0.49,0.49,0,0,1,.09.44v2.68H44.8a0.61,0.61,0,0,1-.58-0.52V44.85a2.84,2.84,0,0,1,.09-0.65H43.65a2.9,2.9,0,0,1,.09.65V47a1.08,1.08,0,0,1-.11.42,0.81,0.81,0,0,1-.79.41,1.1,1.1,0,0,1-.58-0.15v0.19a1.34,1.34,0,0,0,.82.26,1.08,1.08,0,0,0,1.12-1.06V46.16a0.85,0.85,0,0,0,.48.29,1,1,0,0,0,.27,0H55.63a0.83,0.83,0,0,0,.85-0.79V44.85c0-.46-0.21-0.74-1-0.74m-4.89,2.07h-2.7a2.77,2.77,0,0,1,1.77-1.65,0.93,0.93,0,0,1,1.25.93c0,0.23.06,0.7-.32,0.73M56,45.46c0,0.53-.17.72-0.54,0.72a0.94,0.94,0,0,1-.86-1,0.88,0.88,0,0,1,.84-0.91c0.59,0,.56.48,0.56,1.19" transform="translate(-20.59 0.05)"/><path class="cls-4" d="M55.84,43.14a0.3,0.3,0,1,0-.3-0.3,0.29,0.29,0,0,0,.3.3" transform="translate(-20.59 0.05)"/><path class="cls-4" d="M60.05,43.14a0.3,0.3,0,1,0-.3-0.3,0.3,0.3,0,0,0,.3.3" transform="translate(-20.59 0.05)"/><path class="cls-4" d="M59.12,43.14a0.3,0.3,0,1,0,0-.59,0.3,0.3,0,0,0-.3.29,0.29,0.29,0,0,0,.3.3" transform="translate(-20.59 0.05)"/><path class="cls-4" d="M72.25,44.54c0.1,0.07.09,0,.09,0.31v0.66c0,0.41,0,.77-0.37.77a1,1,0,0,1-.59-0.47v-1a1.08,1.08,0,0,1,.08-0.47v0l-0.65.32v0c0.09,0.07.08,0,.08,0.31v0.58c0,0.41,0,.77-0.37.77a1,1,0,0,1-.59-0.47c0-.06,0,0,0-0.91A1.08,1.08,0,0,1,70,44.42v0l-0.65.32v0c0.09,0.07.08,0,.08,0.31v0.32c0,0.45,0,.83-0.44.83H67.48a0.61,0.61,0,0,1-.58-0.52V44.71A1.08,1.08,0,0,1,67,44.24v0l-0.65.32v0c0.09,0.07.09,0,.09,0.31v0.66c0,0.41,0,.77-0.37.77a1,1,0,0,1-.59-0.47v-1a1.11,1.11,0,0,1,.08-0.48v0l-0.65.32v0c0.09,0.07.08,0,.08,0.31v0.58c0,0.41,0,.77-0.37.77A1,1,0,0,1,64,45.81c0-.06,0,0,0-0.91a1.09,1.09,0,0,1,.08-0.48v0l-0.65.32v0c0.09,0.07.09,0,.09,0.31v0.32c0,0.45,0,.83-0.44.83H60.91c-0.37,0-.44-0.23-0.44-0.61V44.19H60.33l-0.32,0c-1.06.21-1.58,0.67-1.58,1.11a0.63,0.63,0,0,0,.67.66A1.23,1.23,0,0,0,60,45.73a0.68,0.68,0,0,0,.77.75h2.59A0.61,0.61,0,0,0,64,46a1.05,1.05,0,0,0,.8.49,0.59,0.59,0,0,0,.65-0.47,1,1,0,0,0,.78.47,0.58,0.58,0,0,0,.64-0.42,0.89,0.89,0,0,0,.51.32,1.52,1.52,0,0,0,.29,0h1.6A0.6,0.6,0,0,0,69.9,46a1.06,1.06,0,0,0,.81.49,0.59,0.59,0,0,0,.65-0.47,1,1,0,0,0,.78.47,0.61,0.61,0,0,0,.68-0.69V44.71a1.08,1.08,0,0,1,.08-0.48v0l-0.65.32v0ZM60,45.5a0.71,0.71,0,0,1-.58.28A0.44,0.44,0,0,1,59,45.27a1.11,1.11,0,0,1,1-.83V45.5Z" transform="translate(-20.59 0.05)"/><path class="cls-4" d="M75.23,43.47V43.3a0.69,0.69,0,0,1-.36.1,0.38,0.38,0,0,1-.35-0.49,0.26,0.26,0,0,1,.27-0.26,0.23,0.23,0,0,1,.22.17l0.25-.06a0.58,0.58,0,0,0-.42-0.24,0.54,0.54,0,0,0-.66.48,0.47,0.47,0,0,0,.16.41,0.35,0.35,0,0,1-.3-0.06h0l-0.15.27h1a0.61,0.61,0,0,0,.38-0.12" transform="translate(-20.59 0.05)"/><path class="cls-4" d="M79.76,44.3a1.21,1.21,0,0,0-1.28,1.16v0.05c0,0.38-.09.66-0.44,0.66H75.66V44.95a1,1,0,0,0-1-.8,1.23,1.23,0,0,0-1.34,1.17,1.09,1.09,0,0,0,1.05,1.16h0.85V47a1.07,1.07,0,0,1-.11.42,0.81,0.81,0,0,1-.79.41,1.09,1.09,0,0,1-.57-0.15v0.19a1.34,1.34,0,0,0,.82.26,1.08,1.08,0,0,0,1.12-1.06V46.48h2.61a0.62,0.62,0,0,0,.5-0.19,1.19,1.19,0,0,0,.86.34,1.47,1.47,0,0,0,1-.34,1,1,0,0,0,.35-0.83,1.11,1.11,0,0,0-1.18-1.16m-4.57,1.88H74.65a1,1,0,0,1,0-1.88c0.58,0,.56.47,0.56,1.19v0.7Zm4.57,0.3A1,1,0,0,1,79,45.34a0.74,0.74,0,0,1,.68-0.9,0.9,0.9,0,0,1,.73,1.08,0.77,0.77,0,0,1-.66,1" transform="translate(-20.59 0.05)"/><path class="cls-4" d="M84.25,49a0.3,0.3,0,0,0,0,.6,0.3,0.3,0,0,0,0-.6" transform="translate(-20.59 0.05)"/><path class="cls-4" d="M85.17,49a0.31,0.31,0,0,0-.3.3,0.29,0.29,0,1,0,.3-0.3" transform="translate(-20.59 0.05)"/><path class="cls-4" d="M90.34,44.11A1.24,1.24,0,0,0,89,45.3a1.22,1.22,0,0,0,.33.88H86.69a2,2,0,0,0-1-.85v0.3a1,1,0,0,1,.3,1.7,1.13,1.13,0,0,1-.9.39,1.82,1.82,0,0,1-1.78-1.5,0.65,0.65,0,0,1,.35-0.34l-0.06-.1a1.09,1.09,0,0,0-.68.62,2.27,2.27,0,0,0,2.17,1.73,2,2,0,0,0,1.12-.68,1.75,1.75,0,0,0,.56-1h3.78a0.83,0.83,0,0,0,.85-0.79V44.84c0-.46-0.21-0.74-1-0.74m0.56,1.36c0,0.53-.17.72-0.55,0.72a0.94,0.94,0,0,1-.86-1,0.88,0.88,0,0,1,.84-0.91c0.59,0,.56.48,0.56,1.19" transform="translate(-20.59 0.05)"/><path class="cls-4" d="M90.25,43.14a0.3,0.3,0,1,0,0-.59,0.3,0.3,0,0,0-.3.29,0.29,0.29,0,0,0,.3.3" transform="translate(-20.59 0.05)"/><path class="cls-4" d="M100.81,43.14a0.3,0.3,0,1,0,0-.59,0.3,0.3,0,0,0-.29.29,0.29,0.29,0,0,0,.29.3" transform="translate(-20.59 0.05)"/><path class="cls-4" d="M106.47,46.17a0.91,0.91,0,0,1-.79-1.15,0.66,0.66,0,0,1,.78-0.64,0.59,0.59,0,0,1,.48.35l0.39-.12a1.12,1.12,0,0,0-.78-0.4,1.2,1.2,0,0,0-1.43,1,1.07,1.07,0,0,0,.44,1H102.4a1.68,1.68,0,0,0,.11-0.81,1.3,1.3,0,0,0-1.65-1.18A2.51,2.51,0,0,0,99,45.86a2.08,2.08,0,0,1,.14-1.09v0L98.51,45v0a0.41,0.41,0,0,1,.11.41v0.71H95.7V44.95a1,1,0,0,0-1-.8,1.24,1.24,0,0,0-1.34,1.17,1.1,1.1,0,0,0,1.05,1.16h0.85V47a1.06,1.06,0,0,1-.11.42,0.8,0.8,0,0,1-.79.41,1.08,1.08,0,0,1-.58-0.15v0.19a1.34,1.34,0,0,0,.82.26,1.08,1.08,0,0,0,1.12-1.06V46.48h10.76a1.59,1.59,0,0,0,.73-0.14l0-.26a1.42,1.42,0,0,1-.71.09m-11.24,0H94.69a1,1,0,0,1,0-1.88c0.57,0,.56.47,0.56,1.19v0.7h0Zm6.46,0H99a2.78,2.78,0,0,1,1.77-1.65,0.93,0.93,0,0,1,1.25.93c0,0.23.05,0.73-.35,0.73" transform="translate(-20.59 0.05)"/><path class="cls-4" d="M42.27,51.43V51.27h1c0.15,0.34.29,0.64,0.41,0.89l1,2,0.87-1.82q0.36-.74.48-1.06h1v0.16a2,2,0,0,0-.37,0,0.17,0.17,0,0,0-.09.06,0.57,0.57,0,0,0,0,.25s0,0.27,0,.72v1.18c0,0.23,0,.46,0,0.67a0.82,0.82,0,0,0,0,.29,0.17,0.17,0,0,0,.09.06,1.71,1.71,0,0,0,.37,0v0.16l-0.73,0-0.75,0V54.72a1.83,1.83,0,0,0,.37,0A0.15,0.15,0,0,0,46,54.63a0.57,0.57,0,0,0,0-.25s0-.28,0-0.72V51.79l-0.88,1.84c-0.14.28-.24,0.52-0.32,0.69l-0.26.6h-0.1a1.06,1.06,0,0,0-.06-0.15l-0.17-.37L43,51.88v1.78c0,0.23,0,.46,0,0.67a0.84,0.84,0,0,0,0,.29,0.17,0.17,0,0,0,.09.06,1.63,1.63,0,0,0,.37,0v0.16l-0.61,0-0.63,0V54.72a1.79,1.79,0,0,0,.37,0,0.17,0.17,0,0,0,.09-0.06,0.63,0.63,0,0,0,0-.25s0-.28,0-0.72V52.48c0-.23,0-0.46,0-0.68a0.75,0.75,0,0,0,0-.28,0.16,0.16,0,0,0-.09-0.07,2,2,0,0,0-.37,0" transform="translate(-20.59 0.05)"/><path class="cls-4" d="M49.25,54.48l-0.08.18-0.26.15a1.49,1.49,0,0,1-.27.09,1.33,1.33,0,0,1-.33,0,1.31,1.31,0,0,1-.61-0.14,1,1,0,0,1-.42-0.42,1.34,1.34,0,0,1-.15-0.65,1.61,1.61,0,0,1,.08-0.53,1,1,0,0,1,.18-0.35,1.36,1.36,0,0,1,.23-0.19,1.53,1.53,0,0,1,.31-0.17,1.13,1.13,0,0,1,.44-0.08,1,1,0,0,1,.52.13,0.78,0.78,0,0,1,.34.35,1.16,1.16,0,0,1,.11.51,1.18,1.18,0,0,1,0,.17l-0.33,0-0.55,0H47.62a1.28,1.28,0,0,0,.13.59,0.76,0.76,0,0,0,.33.33,1,1,0,0,0,.44.11,1,1,0,0,0,.31,0,2.09,2.09,0,0,0,.38-0.19Zm-1.63-1,0.27,0h1s0-.07,0-0.1a0.88,0.88,0,0,0-.16-0.59,0.54,0.54,0,0,0-.44-0.19,0.58,0.58,0,0,0-.46.21,1,1,0,0,0-.18.65" transform="translate(-20.59 0.05)"/><path class="cls-4" d="M49.5,54.88V54.73h0.24l0.08,0,0,0a0.47,0.47,0,0,0,0-.18s0-.26,0-0.73v-0.3c0-.14,0-0.28,0-0.44a0.63,0.63,0,0,0,0-.18l-0.06,0H49.5V52.64a2.51,2.51,0,0,0,.75-0.19l0.07,0h0a0.05,0.05,0,0,1,0,0,0.23,0.23,0,0,1,0,0c0,0.08,0,.2,0,0.36l0.33-.31,0.08-.06,0.17-.06,0.23,0a0.78,0.78,0,0,1,.43.12,0.76,0.76,0,0,1,.29.35l0.28-.26,0.13-.11,0.19-.07a1,1,0,0,1,.24,0,0.77,0.77,0,0,1,.49.15,0.71,0.71,0,0,1,.25.35,2.73,2.73,0,0,1,0,.56v0.62c0,0.21,0,.32,0,0.36a0.59,0.59,0,0,0,0,.19l0,0,0.06,0h0.28v0.15l-0.44,0-0.45,0,0-.7V53.69a2.6,2.6,0,0,0,0-.59,0.45,0.45,0,0,0-.18-0.25,0.55,0.55,0,0,0-.32-0.1,0.64,0.64,0,0,0-.38.12,0.44,0.44,0,0,0-.17.22,2,2,0,0,0,0,.49v0.52c0,0.21,0,.33,0,0.36a0.59,0.59,0,0,0,0,.19l0,0,0.06,0h0.28v0.14l-0.6,0-0.67,0V54.74h0.24l0.08,0,0,0a0.43,0.43,0,0,0,0-.18s0-.26,0-0.73v-0.2a1.56,1.56,0,0,0-.05-0.48,0.47,0.47,0,0,0-.18-0.24,0.52,0.52,0,0,0-.31-0.09,0.66,0.66,0,0,0-.29.06,0.55,0.55,0,0,0-.21.16,0.41,0.41,0,0,0-.09.21,3,3,0,0,0,0,.42v0.16q0,0.66,0,.72a0.56,0.56,0,0,0,0,.19l0,0,0.06,0h0.28v0.15l-0.6,0-0.66,0" transform="translate(-20.59 0.05)"/><path class="cls-4" d="M54.22,54.89c0-.22,0-0.35,0-0.4,0-.37,0-0.59,0-0.65V52.71c0-.28,0-0.58,0-0.88a1.75,1.75,0,0,0,0-.34,0.07,0.07,0,0,0,0,0,1.69,1.69,0,0,0-.35,0V51.28a2.83,2.83,0,0,0,.8-0.18h0.08a0,0,0,0,1,0,0,0.36,0.36,0,0,1,0,0v0.08c0,0.3,0,.56,0,0.78v0.9L55,52.6a0.78,0.78,0,0,1,.23-0.11,1,1,0,0,1,.34-0.06,1,1,0,0,1,.5.13,0.87,0.87,0,0,1,.33.37,1.24,1.24,0,0,1,.11.53,1.35,1.35,0,0,1-.06.42,1.54,1.54,0,0,1-.17.36,0.75,0.75,0,0,1-.13.16l-0.37.27a1.85,1.85,0,0,1-.35.22,1,1,0,0,1-.33,0,1.07,1.07,0,0,1-.32,0,1.09,1.09,0,0,1-.31-0.16l-0.21.19Zm0.47-1.64v1a0.51,0.51,0,0,0,0,.16,0.29,0.29,0,0,0,.08.09,0.86,0.86,0,0,0,.25.14,0.87,0.87,0,0,0,.3.05,0.64,0.64,0,0,0,.57-0.29,1.35,1.35,0,0,0,.1-1.2,0.66,0.66,0,0,0-.26-0.3,0.68,0.68,0,0,0-.37-0.1,0.72,0.72,0,0,0-.43.14,0.66,0.66,0,0,0-.25.34" transform="translate(-20.59 0.05)"/><path class="cls-4" d="M58.92,54.48l-0.08.18-0.26.15-0.27.09a1.32,1.32,0,0,1-.32,0,1.31,1.31,0,0,1-.61-0.14A1,1,0,0,1,57,54.38a1.34,1.34,0,0,1-.15-0.65,1.61,1.61,0,0,1,.08-0.53,1,1,0,0,1,.18-0.35,1.28,1.28,0,0,1,.23-0.19,1.54,1.54,0,0,1,.31-0.17A1.12,1.12,0,0,1,58,52.42a1,1,0,0,1,.52.13,0.78,0.78,0,0,1,.34.35,1.16,1.16,0,0,1,.11.51,1.32,1.32,0,0,1,0,.17l-0.33,0-0.55,0H57.29a1.28,1.28,0,0,0,.13.59,0.77,0.77,0,0,0,.33.33,1,1,0,0,0,.44.11,1,1,0,0,0,.31,0,2.09,2.09,0,0,0,.38-0.19Zm-1.63-1,0.27,0h1s0-.07,0-0.1a0.89,0.89,0,0,0-.16-0.59,0.55,0.55,0,0,0-.44-0.19,0.57,0.57,0,0,0-.46.21,1,1,0,0,0-.18.65" transform="translate(-20.59 0.05)"/><path class="cls-4" d="M59.18,54.88V54.73H59.5l0.06,0,0,0a0.53,0.53,0,0,0,0-.18q0-.68,0-0.71v-0.3c0-.13,0-0.28,0-0.44a0.56,0.56,0,0,0,0-.18,0.11,0.11,0,0,0-.06,0H59.22V52.64A2.58,2.58,0,0,0,60,52.45l0.07,0h0a0.07,0.07,0,0,1,0,0s0,0,0,0,0,0.26,0,.48l0.21-.26a1.1,1.1,0,0,1,.14-0.17,0.65,0.65,0,0,1,.18-0.11,0.56,0.56,0,0,1,.21,0,0.55,0.55,0,0,1,.21,0v0c0,0.23,0,.42,0,0.59H60.86a0.45,0.45,0,0,0-.14-0.18,0.32,0.32,0,0,0-.19-0.06,0.42,0.42,0,0,0-.33.16,0.73,0.73,0,0,0-.14.49v0.26c0,0.11,0,.32,0,0.61a1.3,1.3,0,0,0,0,.2,0.15,0.15,0,0,0,0,.06l0.06,0a2.57,2.57,0,0,0,.41,0v0.14l-0.76,0-0.63,0" transform="translate(-20.59 0.05)"/><path class="cls-4" d="M62.39,53.71a1.26,1.26,0,0,1,.36-0.93,1.27,1.27,0,0,1,.93-0.36,1.15,1.15,0,0,1,1.21,1.2,1.35,1.35,0,0,1-.17.68,1.21,1.21,0,0,1-.49.48,1.4,1.4,0,0,1-.69.18,1.15,1.15,0,0,1-.5-0.1,1,1,0,0,1-.33-0.25,1.26,1.26,0,0,1-.19-0.31,1.45,1.45,0,0,1-.12-0.59m0.48-.19a2.14,2.14,0,0,0,.1.64,0.93,0.93,0,0,0,.3.47,0.69,0.69,0,0,0,.43.15,0.62,0.62,0,0,0,.49-0.24,1.09,1.09,0,0,0,.2-0.72,1.86,1.86,0,0,0-.12-0.7,0.87,0.87,0,0,0-.3-0.42,0.74,0.74,0,0,0-.41-0.12,0.63,0.63,0,0,0-.51.23,1.06,1.06,0,0,0-.2.7" transform="translate(-20.59 0.05)"/><path class="cls-4" d="M65.15,52.89v-0.1a2.88,2.88,0,0,0,.35-0.18V52.46a1.76,1.76,0,0,1,0-.47,0.8,0.8,0,0,1,.12-0.24,3.87,3.87,0,0,1,.36-0.4,1.46,1.46,0,0,1,.24-0.2,0.57,0.57,0,0,1,.25,0,0.68,0.68,0,0,1,.2,0v0.42l-0.06,0a0.51,0.51,0,0,0-.16-0.1,0.49,0.49,0,0,0-.18,0,0.41,0.41,0,0,0-.23.06,0.31,0.31,0,0,0-.12.16,1.4,1.4,0,0,0,0,.43v0.53h0.27l0.4,0,0,0-0.05.26H65.94v0.91q0,0.17,0,.61a1.09,1.09,0,0,0,0,.2l0,0.06,0.05,0a2.69,2.69,0,0,0,.41,0v0.14l-0.72,0-0.65,0V54.73h0.24l0.08,0,0,0a0.46,0.46,0,0,0,0-.18s0-.26,0-0.73V52.87Z" transform="translate(-20.59 0.05)"/><path class="cls-4" d="M69.17,55.52V55.36a2.61,2.61,0,0,1,.66-0.4,2.2,2.2,0,0,1-1-.21,1.52,1.52,0,0,1-.63-0.66,2.11,2.11,0,0,1-.24-1,1.81,1.81,0,0,1,.54-1.35,2,2,0,0,1,1.43-.53,2.39,2.39,0,0,1,.79.12,1.59,1.59,0,0,1,.93.82,1.9,1.9,0,0,1,.17.81,2.09,2.09,0,0,1-.23,1,1.78,1.78,0,0,1-.66.71,2.13,2.13,0,0,1-1,.31l0.25,0,0.32,0.11a5.9,5.9,0,0,0,.68.24,1.48,1.48,0,0,0,.36.06,0.92,0.92,0,0,0,.27-0.05v0.13l-0.12.08-0.19.11-0.1.09-0.17,0-0.26-.06-0.48-.15a3.93,3.93,0,0,0-.8-0.22l-0.11,0-0.13.06Zm-0.73-2.58a2.38,2.38,0,0,0,.07.54,2.19,2.19,0,0,0,.18.51,1.56,1.56,0,0,0,.29.38,1.29,1.29,0,0,0,.39.26,1.48,1.48,0,0,0,1.24-.09A1.18,1.18,0,0,0,71.07,54a2.18,2.18,0,0,0,.15-0.85,2.43,2.43,0,0,0-.1-0.73,1.55,1.55,0,0,0-.29-0.54,1.18,1.18,0,0,0-.46-0.33,1.56,1.56,0,0,0-.61-0.12,1.26,1.26,0,0,0-1,.39,1.63,1.63,0,0,0-.36,1.14" transform="translate(-20.59 0.05)"/><path class="cls-4" d="M72.33,53.14l-0.14,0s0-.09,0-0.16,0-.13,0-0.17a2.85,2.85,0,0,1,.53-0.28,1.12,1.12,0,0,1,.35-0.05,1,1,0,0,1,.49.11,0.69,0.69,0,0,1,.3.31,1,1,0,0,1,.07.39v1.22a0.59,0.59,0,0,0,0,.17,0.1,0.1,0,0,0,0,.06l0.11,0h0.17v0.15l-0.37,0-0.41,0V54.43c-0.35.26-.55,0.41-0.61,0.44a0.55,0.55,0,0,1-.25,0,0.66,0.66,0,0,1-.48-0.17A0.57,0.57,0,0,1,72,54.32,0.81,0.81,0,0,1,72.05,54a0.68,0.68,0,0,1,.14-0.23,0.58,0.58,0,0,1,.17-0.13,2.82,2.82,0,0,1,.48-0.15,6,6,0,0,1,.66-0.12A0.92,0.92,0,0,0,73.44,53a0.48,0.48,0,0,0-.21-0.22,0.67,0.67,0,0,0-.35-0.09,0.79,0.79,0,0,0-.26,0l-0.14.06,0,0.1-0.1.24m1.17,0.4a4.76,4.76,0,0,0-.56.13,1,1,0,0,0-.33.14,0.35,0.35,0,0,0-.1.13,0.63,0.63,0,0,0-.06.28,0.4,0.4,0,0,0,.1.29,0.39,0.39,0,0,0,.29.1,0.66,0.66,0,0,0,.34-0.1,1.3,1.3,0,0,0,.33-0.29V53.53h0Z" transform="translate(-20.59 0.05)"/><path class="cls-4" d="M74.4,52.88V52.78l0.39-.17V51.83a2.21,2.21,0,0,0,.43-0.19l0.06,0.05c0,0.14,0,.45-0.06.93h0.7l0,0-0.05.23H75.22v1a4,4,0,0,0,0,.45,0.37,0.37,0,0,0,0,.13,0.27,0.27,0,0,0,.09.09,0.57,0.57,0,0,0,.19.05h0.17l0.16,0,0,0.1-0.23.2-0.18,0H75.31a0.62,0.62,0,0,1-.21,0,0.5,0.5,0,0,1-.15-0.09,0.43,0.43,0,0,1-.11-0.14,0.76,0.76,0,0,1-.06-0.26c0-.12,0-0.24,0-0.38s0-.06,0-0.09V52.87H74.4" transform="translate(-20.59 0.05)"/><path class="cls-4" d="M76.43,53.14l-0.13,0s0-.09,0-0.16,0-.13,0-0.17a2.88,2.88,0,0,1,.53-0.28,1.12,1.12,0,0,1,.36-0.05,1,1,0,0,1,.49.11,0.69,0.69,0,0,1,.29.31,1,1,0,0,1,.06.39v1.22a0.56,0.56,0,0,0,0,.17,0.13,0.13,0,0,0,0,.06l0.11,0h0.17v0.15l-0.37,0-0.41,0V54.43c-0.35.26-.55,0.41-0.61,0.44a0.54,0.54,0,0,1-.24,0,0.66,0.66,0,0,1-.48-0.17,0.57,0.57,0,0,1-.17-0.44A0.81,0.81,0,0,1,76.15,54a0.67,0.67,0,0,1,.15-0.23,0.58,0.58,0,0,1,.17-0.13,2.76,2.76,0,0,1,.48-0.15,6,6,0,0,1,.66-0.12A0.92,0.92,0,0,0,77.54,53a0.48,0.48,0,0,0-.21-0.22A0.67,0.67,0,0,0,77,52.7a0.79,0.79,0,0,0-.26,0l-0.14.06,0,0.1a2.17,2.17,0,0,0-.1.24m1.17,0.4a4.87,4.87,0,0,0-.57.13,1,1,0,0,0-.33.14,0.35,0.35,0,0,0-.1.13,0.6,0.6,0,0,0-.07.28,0.41,0.41,0,0,0,.1.29,0.39,0.39,0,0,0,.29.1,0.66,0.66,0,0,0,.34-0.1,1.35,1.35,0,0,0,.33-0.29V53.53h0Z" transform="translate(-20.59 0.05)"/><path class="cls-4" d="M78.5,54.88V54.73h0.31l0.06,0,0,0a0.52,0.52,0,0,0,0-.18q0-.68,0-0.71v-0.3c0-.13,0-0.28,0-0.44a0.63,0.63,0,0,0,0-.18,0.12,0.12,0,0,0-.06,0H78.54V52.64a2.61,2.61,0,0,0,.75-0.19l0.07,0h0a0.05,0.05,0,0,1,0,0s0,0,0,0,0,0.26,0,.48l0.21-.26a1.05,1.05,0,0,1,.14-0.17,0.63,0.63,0,0,1,.18-0.11,0.58,0.58,0,0,1,.21,0,0.55,0.55,0,0,1,.21,0v0c0,0.23,0,.42,0,0.59H80.18A0.46,0.46,0,0,0,80,52.93a0.32,0.32,0,0,0-.19-0.06,0.42,0.42,0,0,0-.33.16,0.73,0.73,0,0,0-.14.49v0.26c0,0.11,0,.32,0,0.61a1.2,1.2,0,0,0,0,.2,0.12,0.12,0,0,0,0,.06l0.06,0a2.53,2.53,0,0,0,.41,0v0.14l-0.76,0-0.63,0" transform="translate(-20.59 0.05)"/><path class="cls-4" d="M81.65,51.43V51.27l0.65,0h2a3.57,3.57,0,0,0-.08.77H84A2.93,2.93,0,0,0,84,51.58a1.46,1.46,0,0,0-.33-0.07l-0.45,0a4.65,4.65,0,0,0-.53,0c0,0.09,0,.18,0,0.26s0,0.24,0,.58v0.56h0.5a3.62,3.62,0,0,0,.51,0,0.16,0.16,0,0,0,.1,0,0.81,0.81,0,0,0,0-.22l0-.16H84l0,0.58,0,0.63H83.81l0-.16a1.93,1.93,0,0,0,0-.3,0.15,0.15,0,0,0-.1-0.05,4,4,0,0,0-.65,0H82.63v0.51c0,0.23,0,.45,0,0.67a0.77,0.77,0,0,0,0,.29,0.17,0.17,0,0,0,.09.06,1.73,1.73,0,0,0,.37,0v0.16l-0.64,0-0.84,0V54.72a1.77,1.77,0,0,0,.36,0,0.17,0.17,0,0,0,.09-0.06,0.63,0.63,0,0,0,0-.25s0-.28,0-0.72V52.48c0-.23,0-0.46,0-0.68a0.77,0.77,0,0,0,0-.28A0.17,0.17,0,0,0,82,51.45a2,2,0,0,0-.37,0" transform="translate(-20.59 0.05)"/><path class="cls-4" d="M84.5,53.71a1.24,1.24,0,0,1,1.29-1.29A1.15,1.15,0,0,1,87,53.62a1.35,1.35,0,0,1-.17.68,1.22,1.22,0,0,1-.49.48,1.4,1.4,0,0,1-.69.18,1.17,1.17,0,0,1-.5-0.1,1,1,0,0,1-.33-0.25,1.18,1.18,0,0,1-.19-0.31,1.5,1.5,0,0,1-.12-0.59M85,53.52a2.05,2.05,0,0,0,.1.64,0.92,0.92,0,0,0,.3.47,0.7,0.7,0,0,0,.43.15,0.63,0.63,0,0,0,.5-0.24,1.09,1.09,0,0,0,.19-0.72,1.84,1.84,0,0,0-.12-0.7,0.84,0.84,0,0,0-.3-0.42,0.73,0.73,0,0,0-.41-0.12,0.63,0.63,0,0,0-.51.23,1,1,0,0,0-.19.7" transform="translate(-20.59 0.05)"/><path class="cls-4" d="M90.08,54.73v0.15l-0.5,0-0.38,0c0-.14,0-0.29,0-0.46a4.78,4.78,0,0,0-.36.33l-0.1.07a0.86,0.86,0,0,1-.22.09,1.12,1.12,0,0,1-.26,0,0.93,0.93,0,0,1-.35-0.06,0.66,0.66,0,0,1-.24-0.17,0.58,0.58,0,0,1-.11-0.22,1.13,1.13,0,0,1,0-.32c0-.06,0-0.12,0-0.17a1.19,1.19,0,0,0,0-.16V53.41s0-.16,0-0.33a1,1,0,0,0,0-.22l0,0a0.25,0.25,0,0,0-.14,0H87.14V52.64a2.29,2.29,0,0,0,.79-0.2l0.06,0h0a0.06,0.06,0,0,1,0,0,0.33,0.33,0,0,1,0,.05c0,0.06,0,.16,0,0.31s0,0.47,0,.57v0.49a1.61,1.61,0,0,0,0,.44,0.37,0.37,0,0,0,.16.2,0.56,0.56,0,0,0,.3.08,0.7,0.7,0,0,0,.24,0A0.64,0.64,0,0,0,89,54.45a0.87,0.87,0,0,0,.15-0.16l0.07-.11a0.31,0.31,0,0,0,0-.12c0-.15,0-0.3,0-0.44V53.41s0-.15,0-0.33a1.08,1.08,0,0,0,0-.22l0,0a0.26,0.26,0,0,0-.14,0H88.8V52.64a2.3,2.3,0,0,0,.79-0.2l0.06,0h0a0.06,0.06,0,0,1,0,0s0,0,0,0,0,0.16,0,.32,0,0.46,0,.56v0.7c0,0.21,0,.33,0,0.36a0.58,0.58,0,0,0,0,.19l0,0,0.06,0h0.28" transform="translate(-20.59 0.05)"/><path class="cls-4" d="M90.18,54.88V54.73h0.24l0.08,0,0,0a0.5,0.5,0,0,0,0-.18s0-.26,0-0.73v-0.3c0-.14,0-0.28,0-0.44a0.72,0.72,0,0,0,0-.18l-0.06,0H90.18V52.64a2.5,2.5,0,0,0,.75-0.19l0.07,0h0a0.06,0.06,0,0,1,0,0,0.37,0.37,0,0,1,0,0c0,0.06,0,.19,0,0.39l0.47-.4a1.15,1.15,0,0,1,.39-0.08,0.89,0.89,0,0,1,.39.09,0.69,0.69,0,0,1,.28.21,0.71,0.71,0,0,1,.12.32,6.13,6.13,0,0,1,0,.64v0.45a3.68,3.68,0,0,0,0,.45,0.2,0.2,0,0,0,0,.11,0.11,0.11,0,0,0,.08,0h0.27v0.14l-0.42,0-0.47,0c0-.42,0-0.68,0-0.79V53.66a2.82,2.82,0,0,0,0-.53A0.46,0.46,0,0,0,92,52.86a0.65,0.65,0,0,0-.37-0.1,0.68,0.68,0,0,0-.35.09,0.61,0.61,0,0,0-.23.21,0.87,0.87,0,0,0-.07.4v0.31c0,0.44,0,.68,0,0.72a0.61,0.61,0,0,0,0,.19l0,0,0.06,0h0.28v0.15l-0.56,0-0.7,0" transform="translate(-20.59 0.05)"/><path class="cls-4" d="M94.77,51.42V51.28l0.48-.07,0.38-.1,0,0c0,0.15,0,.42,0,0.83v2c0,0.17,0,.32,0,0.45a0.81,0.81,0,0,0,0,.23,0.16,0.16,0,0,0,.08.06,1.47,1.47,0,0,0,.32,0v0.14l-0.44,0-0.45,0c0-.12,0-0.27,0-0.47l-0.27.22-0.27.24a1.44,1.44,0,0,1-.36.05,1,1,0,0,1-.53-0.14,1,1,0,0,1-.37-0.41,1.48,1.48,0,0,1,0-1.09,1,1,0,0,1,.2-0.35,1.93,1.93,0,0,1,.31-0.22,3.9,3.9,0,0,1,.4-0.21,0.84,0.84,0,0,1,.33-0.06,1.26,1.26,0,0,1,.31,0,1.22,1.22,0,0,1,.3.12V51.92a1.92,1.92,0,0,0,0-.43,0.07,0.07,0,0,0,0,0,1.37,1.37,0,0,0-.35,0M95.19,53a1.14,1.14,0,0,0-.36-0.28,0.87,0.87,0,0,0-.37-0.09,0.75,0.75,0,0,0-.39.1,0.68,0.68,0,0,0-.27.32,1.3,1.3,0,0,0-.09.52,1.07,1.07,0,0,0,.23.73,0.72,0.72,0,0,0,.56.26,0.64,0.64,0,0,0,.31-0.07A0.68,0.68,0,0,0,95,54.31,0.69,0.69,0,0,0,95.17,54a4.55,4.55,0,0,0,0-.55V53Z" transform="translate(-20.59 0.05)"/><path class="cls-4" d="M96.67,53.14l-0.13,0s0-.09,0-0.16,0-.13,0-0.17a2.7,2.7,0,0,1,.53-0.28,1.11,1.11,0,0,1,.35-0.05,1,1,0,0,1,.49.11,0.69,0.69,0,0,1,.29.31,0.93,0.93,0,0,1,.07.39v1.22a0.55,0.55,0,0,0,0,.17,0.11,0.11,0,0,0,0,.06l0.11,0H98.6v0.15l-0.37,0-0.41,0V54.43c-0.35.26-.55,0.41-0.62,0.44a0.54,0.54,0,0,1-.24,0,0.66,0.66,0,0,1-.48-0.17,0.58,0.58,0,0,1-.17-0.44A0.85,0.85,0,0,1,96.39,54a0.66,0.66,0,0,1,.15-0.23,0.59,0.59,0,0,1,.17-0.13,2.74,2.74,0,0,1,.48-0.15,6,6,0,0,1,.65-0.12A0.86,0.86,0,0,0,97.78,53a0.47,0.47,0,0,0-.21-0.22,0.67,0.67,0,0,0-.35-0.09,0.79,0.79,0,0,0-.26,0l-0.14.06,0,0.1-0.1.24m1.17,0.4a5,5,0,0,0-.56.13,1,1,0,0,0-.33.14,0.37,0.37,0,0,0-.1.13,0.63,0.63,0,0,0-.06.28,0.4,0.4,0,0,0,.1.29,0.39,0.39,0,0,0,.29.1,0.66,0.66,0,0,0,.34-0.1,1.25,1.25,0,0,0,.33-0.29V53.53h0Z" transform="translate(-20.59 0.05)"/><path class="cls-4" d="M98.74,52.88V52.78l0.39-.17V51.83a2.14,2.14,0,0,0,.43-0.19l0.06,0.05c0,0.14,0,.45-0.06.93h0.71l0,0-0.06.23H99.56v1a3.86,3.86,0,0,0,0,.45,0.32,0.32,0,0,0,0,.13,0.26,0.26,0,0,0,.09.09,0.62,0.62,0,0,0,.19.05h0.17l0.16,0,0,0.1-0.23.2-0.18,0H99.64a0.62,0.62,0,0,1-.21,0,0.45,0.45,0,0,1-.15-0.09,0.37,0.37,0,0,1-.11-0.14,0.71,0.71,0,0,1-.06-0.26c0-.12,0-0.24,0-0.38s0-.06,0-0.09V52.87H98.74" transform="translate(-20.59 0.05)"/><path class="cls-4" d="M100.33,52.79V52.64a2.63,2.63,0,0,0,.83-0.21l0.06,0c0,0.36,0,.64,0,0.83v0.46c0,0.44,0,.68,0,0.72a0.6,0.6,0,0,0,0,.19l0,0,0.06,0h0.28v0.15l-0.62,0-0.67,0V54.73h0.24l0.08,0,0,0a0.49,0.49,0,0,0,0-.18s0-.26,0-0.73V53.31a2.46,2.46,0,0,0,0-.45,0.11,0.11,0,0,0-.06-0.06,1.51,1.51,0,0,0-.34,0M101,51.3a0.28,0.28,0,0,1,.29.29,0.28,0.28,0,0,1-.08.2,0.29,0.29,0,0,1-.2.08,0.28,0.28,0,0,1-.2-0.08,0.27,0.27,0,0,1-.09-0.2A0.29,0.29,0,0,1,101,51.3" transform="translate(-20.59 0.05)"/><path class="cls-4" d="M101.81,53.71a1.24,1.24,0,0,1,1.29-1.29,1.15,1.15,0,0,1,1.21,1.2,1.37,1.37,0,0,1-.17.68,1.22,1.22,0,0,1-.49.48,1.4,1.4,0,0,1-.69.18,1.16,1.16,0,0,1-.5-0.1,1,1,0,0,1-.33-0.25,1.2,1.2,0,0,1-.19-0.31,1.47,1.47,0,0,1-.12-0.59m0.48-.19a2.08,2.08,0,0,0,.11.64,0.94,0.94,0,0,0,.3.47,0.69,0.69,0,0,0,.43.15,0.62,0.62,0,0,0,.49-0.24,1.09,1.09,0,0,0,.2-0.72,1.9,1.9,0,0,0-.12-0.7,0.85,0.85,0,0,0-.3-0.42,0.72,0.72,0,0,0-.4-0.12,0.63,0.63,0,0,0-.51.23,1.05,1.05,0,0,0-.2.7" transform="translate(-20.59 0.05)"/><path class="cls-4" d="M104.44,54.88V54.73h0.24l0.08,0,0,0a0.47,0.47,0,0,0,0-.18s0-.26,0-0.73v-0.3c0-.14,0-0.28,0-0.44a0.81,0.81,0,0,0,0-.18l-0.06,0h-0.33V52.64a2.52,2.52,0,0,0,.75-0.19l0.07,0h0a0.07,0.07,0,0,1,0,0,0.23,0.23,0,0,1,0,0c0,0.06,0,.19,0,0.39l0.47-.4a1.15,1.15,0,0,1,.4-0.08,0.89,0.89,0,0,1,.39.09,0.67,0.67,0,0,1,.28.21,0.71,0.71,0,0,1,.12.32,6.4,6.4,0,0,1,0,.64v0.45a3.37,3.37,0,0,0,0,.45,0.22,0.22,0,0,0,0,.11,0.12,0.12,0,0,0,.08,0h0.27v0.14l-0.41,0-0.47,0c0-.42,0-0.68,0-0.79V53.66a3,3,0,0,0,0-.53,0.47,0.47,0,0,0-.2-0.27,0.65,0.65,0,0,0-.37-0.1,0.68,0.68,0,0,0-.35.09,0.61,0.61,0,0,0-.23.21,0.86,0.86,0,0,0-.07.4v0.31q0,0.66,0,.72a0.64,0.64,0,0,0,0,.19l0,0,0.07,0h0.28v0.15l-0.56,0-0.7,0" transform="translate(-20.59 0.05)"/></svg>