<?xml version="1.0" encoding="UTF-8" standalone="no"?>
<!-- Created with Inkscape (http://www.inkscape.org/) -->

<svg
   xmlns:dc="http://purl.org/dc/elements/1.1/"
   xmlns:cc="http://creativecommons.org/ns#"
   xmlns:rdf="http://www.w3.org/1999/02/22-rdf-syntax-ns#"
   xmlns:svg="http://www.w3.org/2000/svg"
   xmlns="http://www.w3.org/2000/svg"
   xmlns:sodipodi="http://sodipodi.sourceforge.net/DTD/sodipodi-0.dtd"
   xmlns:inkscape="http://www.inkscape.org/namespaces/inkscape"
   width="12.451262mm"
   height="3.2595022mm"
   viewBox="0 0 44.118647 11.549418"
   id="svg2"
   version="1.1"
   inkscape:version="0.91 r13725"
   sodipodi:docname="logo2.svg"
   inkscape:export-filename="/Users/bwang/HBKU/website/www/images/logo3.png"
   inkscape:export-xdpi="1400"
   inkscape:export-ydpi="1400">
  <defs
     id="defs4">
    <style
       id="style4642">.cls-1{fill:#00b2e2;}.cls-2{fill:#0076bc;}.cls-3{fill:#20285c;}.cls-4{fill:#00483a;}</style>
    <style
       id="style5268">.cls-1{fill:#00b2e2;}.cls-2{fill:#0076bc;}.cls-3{fill:#20285c;}.cls-4{fill:#00483a;}</style>
    <style
       id="style6086">.cls-1{fill:#00b2e2;}.cls-2{fill:#0076bc;}.cls-3{fill:#20285c;}.cls-4{fill:#00483a;}</style>
  </defs>
  <sodipodi:namedview
     id="base"
     pagecolor="#ffffff"
     bordercolor="#666666"
     borderopacity="1.0"
     inkscape:pageopacity="0.0"
     inkscape:pageshadow="2"
     inkscape:zoom="12.837941"
     inkscape:cx="22.059317"
     inkscape:cy="5.7747107"
     inkscape:document-units="px"
     inkscape:current-layer="layer1"
     showgrid="true"
     inkscape:window-width="1398"
     inkscape:window-height="855"
     inkscape:window-x="85"
     inkscape:window-y="7"
     inkscape:window-maximized="0"
     fit-margin-top="0"
     fit-margin-left="0"
     fit-margin-right="0"
     fit-margin-bottom="0">
    <inkscape:grid
       type="xygrid"
       id="grid5029"
       enabled="true"
       visible="true"
       originx="-266.33392"
       originy="-577.74285" />
  </sodipodi:namedview>
  <metadata
     id="metadata7">
    <rdf:RDF>
      <cc:Work
         rdf:about="">
        <dc:format>image/svg+xml</dc:format>
        <dc:type
           rdf:resource="http://purl.org/dc/dcmitype/StillImage" />
        <dc:title></dc:title>
      </cc:Work>
    </rdf:RDF>
  </metadata>
  <g
     inkscape:label="Layer 1"
     inkscape:groupmode="layer"
     id="layer1"
     transform="translate(-266.33391,-463.06996)">
    <g
       id="g4227"
       inkscape:export-xdpi="1400"
       inkscape:export-ydpi="1400">
      <rect
         y="463.14496"
         x="266.40891"
         height="11.399417"
         width="43.904171"
         id="rect4212"
         style="opacity:1;fill:#ffffff;fill-opacity:1;stroke:#ffffff;stroke-width:0.15000001;stroke-miterlimit:10;stroke-dasharray:none;stroke-dashoffset:0;stroke-opacity:1" />
      <path
         inkscape:export-ydpi="1400"
         inkscape:export-xdpi="1400"
         d="m 266.50089,472.25465 0.0437,0.86129 0.0439,0.36586 0.0437,-0.99986 0.0436,-1.18241 0.0437,0.53916 0.044,-0.41068 0.0437,1.52508 0.0437,-0.008 0.044,1.19781 0.0437,-2.72362 0.044,0.55702 0.0437,0.26962 0.0439,0.48472 0.0437,-1.61022 0.044,0.0998 0.0439,0.6627 0.0437,0.32717 0.0439,1.2637 0.044,-2.98206 0.0437,0.96339 0.0439,1.17453 0.0437,-1.44232 0.0439,1.9668 0.0437,-1.59839 0.0437,0.3225 0.0439,-0.87962 0.0437,0.83957 0.0437,0.57452 0.0436,-0.97226 0.0439,0.77605 0.0436,-1.27122 0.0437,-1.20495 0.044,1.75841 0.0437,0.31718 0.0437,0.57461 0.0436,0.64721 0.0439,-0.86523 0.0436,-0.62044 0.0437,-0.0128 0.044,0.90353 0.0437,0.75434 0.0437,-1.08794 0.044,0.62036 0.0437,-2.73471 0.0436,3.1593 0.044,0.23737 0.044,0.83663 0.0437,-3.26525 0.0436,2.18658 0.0439,-0.81656 0.0436,-0.0129 0.0437,-0.55703 0.0437,-0.37125 0.0439,0.35017 0.0437,0.22629 0.0437,-0.98236 0.0439,0.34898 0.0437,0.81125 0.0436,-1.89523 0.044,2.62731 0.0439,-1.91449 0.0436,2.29756 0.044,-2.50377 0.0439,0.82299 0.0437,0.91288 0.0439,-0.84772 0.0437,-0.0364 0.0439,1.81064 0.044,-1.94096 0.0437,0.89455 0.044,-0.86633 0.0437,1.88983 0.0437,-1.13155 0.044,1.55505 0.0437,-2.32515 0.0436,1.24014 0.0437,0.44065 0.0439,-0.90638 0.0437,0.0751 0.0437,-1.06757 0.0439,0.78724 0.0437,0.61035 0.0436,-0.6955 0.0437,-0.89932 0.0439,-0.8731 0.0437,3.30638 0.0437,-1.43122 0.0439,-0.43101 0.0437,1.2823 0.0437,-0.88172 0.0439,0.7514 0.044,-0.96584 0.0437,-0.73858 0.0437,-0.0533 0.044,1.13915 0.0437,-0.43889 0.0436,0.44889 0.044,-0.22619 0.0437,-0.0606 0.0437,-0.95293 0.044,2.11784 0.0439,-1.34711 0.0437,-0.0604 0.0437,0.32618 0.0439,0.61493 0.0437,0.28035 0.0437,-0.88713 0.0436,0.40782 0.044,-0.29033 0.0436,-0.8184 0.0437,1.1398 0.044,-0.71557 0.0437,0.48581 0.0437,0.17037 0.0436,-0.59212 0.0439,0.15791 0.0436,0.37657 0.0437,-0.51625 0.044,-0.34256 0.0437,0.62685 0.044,-1.64137 0.0437,1.96103 0.0439,1.94967 0.0437,-2.49019 0.0437,-1.03395 0.0439,1.58383 0.0437,0.0594 0.0437,-0.69448 0.044,2.0216 0.0436,-3.47327 0.0437,1.37752 0.0437,0.43889 0.0439,-0.13096 0.0437,0.27668 0.0437,0.97337 0.0439,-1.65604 0.0437,1.2068 0.0436,-1.26188 0.044,0.0211 0.0439,1.09334 0.0437,-1.96581 0.0436,1.80469 0.044,0.271 0.0436,-0.24204 0.0437,-0.17679 0.0439,-0.3784 0.044,-0.40416 0.0437,0.88237 0.044,-1.19497 0.0439,0.54456 0.0436,0.61503 0.0439,-1.22007 0.0439,1.25838 0.0437,-0.23736 0.0436,-0.34084 0.0437,0.10989 0.0439,0.2392 0.0437,-1.08335 0.0437,0.54347 0.0439,1.04393 0.0437,-1.87342 0.0437,-0.271 0.0436,1.01635 0.0439,1.42299 0.0436,0.48865 0.0437,-0.92755 0.0439,-2.13608 0.0437,3.17177 0.0437,-1.88405 0.0436,1.46807 0.044,-2.20124 0.0436,-0.56389 0.0437,-0.19045 0.0439,1.2967 0.0437,1.2748 0.0437,-0.93186 0.0439,-0.57105 0.0437,1.73844 0.0436,-1.42235 0.0437,-0.47463 0.0439,-0.35659 0.0437,2.58074 0.0437,-2.19235 0.0439,0.11035 0.044,0.39012 0.0437,0.0717 0.044,1.83107 0.0439,-2.11893 0.0436,0.77898 0.0437,-0.96338 0.0439,0.49333 0.0437,0.58461 0.0437,-0.45465 0.0439,1.36286 0.044,-1.87333 0.0437,0.25129 0.044,0.30253 0.044,-0.88998 0.0436,-0.41241 0.0437,0.97768 0.0437,1.31878 0.044,-0.90243 0.0437,0.66517 0.0436,-0.70669 0.0439,-0.32433 0.0436,-0.79191 0.0437,2.00548 0.044,-1.39155 0.0437,0.9709 0.0437,-0.89107 0.0437,0.60037 0.0439,0.35476 0.0436,-1.32813 0.0437,0.12675 0.0439,1.25188 0.0437,1.15455 0.0437,-2.97565 0.0437,1.09618 0.0439,0.12528 0.0437,0.76607 0.0436,-0.27668 0.0439,-1.82898 0.0436,1.84474 0.0437,-1.33821 0.0437,-0.55812 0.044,2.26933 0.0437,0.81189 0.0436,-2.75039 0.0439,-0.27493 0.0436,1.19892 0.0437,0.32534 0.044,-0.1174 0.0437,-0.23663 0.0437,-0.32791 0.0437,0.9093 0.0439,-0.78118 0.044,0.28712 0.0437,0.27925 0.0439,-0.20978 0.0439,-0.99701 0.0437,1.31603 0.0437,0.13454 0.0439,0.32296 0.0437,-0.64977 0.0436,2.33586 0.0439,-1.77701 0.0436,-0.29253 0.0437,1.0586 0.0437,-1.40118 0.0439,1.30238 0.0437,-1.19248 0.0437,-0.70916 0.0439,0.57746 0.0437,-0.55281 0.0436,0.88896 0.0437,0.373 0.0439,-0.3115 0.0437,-0.0881 0.0437,0.23636 0.0439,-1.86948 0.0437,0.84882 0.0436,1.14988 0.044,0.067 0.0436,-0.54988 0.0437,-0.60101 0.0437,0.70018 0.044,-0.64153 0.0437,0.66801 0.0437,-0.58745 0.044,1.17957 0.0437,-0.60678 0.0436,-0.80191 0.0437,-0.81656 0.044,1.6149 0.0437,-0.13501 0.0437,-1.00516 0.044,0.54052 0.0437,0.21089 0.0436,1.51783 0.0437,-0.7954 0.0439,-1.62066 0.0437,1.1266 0.0437,-1.54258 0.044,1.04751 0.044,-0.96301 0.0437,-2.15194 0.044,4.13231 0.0439,-0.87522 0.0436,-0.80089 0.0437,2.20381 0.0439,-2.94696 0.0437,2.6613 0.0437,-0.50332 0.0439,-0.28144 0.0437,-0.69266 0.0436,1.64962 0.0437,-0.75076 0.044,-0.18393 0.0437,-0.64904 0.0437,1.0267 0.044,-1.63496 0.0437,1.67859 0.0437,-0.89135 0.0436,0.82262 0.044,0.76826 0.0437,-2.91085 0.0437,2.16476 0.044,0.74967 0.0437,-0.77184 0.0437,1.90559 0.0436,-2.43503 0.0439,0.69806 0.0436,-2.14973 0.0437,2.2543 0.044,-0.10631 0.0437,0.306 0.0437,-1.47521 0.044,0.8337 0.0437,-0.31682 0.0436,-0.009 0.0437,0.64977 0.044,-0.93937 0.0437,0.22445 0.0437,-0.96412 0.044,0.64729 0.0437,1.54506 0.0437,-1.97213 0.0436,1.71909 0.044,-0.0531 0.0436,-1.64962 0.0437,2.37637 0.0439,-3.62927 0.044,1.45158 0.0436,-0.20043 0.0437,0.71273 0.0439,-0.92177 0.0437,0.43348 0.0437,-1.22071 0.0439,1.17956 0.0437,0.3215 0.0436,1.02276 0.044,-0.55344 0.0439,-0.84132 0.0437,0.4214 0.0436,0.004 0.044,-0.88539 0.0436,0.70136 0.0437,-0.27887 0.0439,-1.46707 0.0437,2.10675 0.0437,0.0763 0.0436,1.26444 0.0439,-2.67422 0.0436,0.35659 0.0437,0.93222 0.0439,0.58745 0.0437,-0.62329 0.0439,0.0623 0.0437,1.1474 0.0439,-0.72033 0.044,0.59927 0.0436,-1.19029 0.044,-0.69203 0.0439,0.94479 0.0437,-0.51872 0.0436,1.51215 0.044,-0.79548 0.0439,-0.37017 0.0437,0.20337 0.0439,0.86413 0.0439,-1.11615 0.0437,-0.002 0.044,-2.03555 0.0439,1.7596 0.0437,2.13003 0.0437,-2.60117 0.044,0.67836 0.0437,-2.07596 0.0436,2.85394 0.044,-0.38849 0.0439,-1.86975 0.0437,2.85027 0.0436,-1.04275 0.044,1.0059 0.0436,-1.2132 0.0437,-1.5379 0.044,1.13833 0.0437,-1.05925 0.0437,1.21037 0.0436,1.33711 0.0439,-0.701 0.0436,-1.14484 0.0437,0.76076 0.044,-1.32135 0.0437,1.68903 0.0437,-0.003 0.044,-0.71557 0.0437,0.71098 0.0437,-0.096 0.0436,0.50937 0.0439,0.11997 0.0436,-1.30954 0.0437,1.28589 0.0439,-0.48224 0.0437,-1.21889 0.0437,0.6232 0.0436,0.24312 0.0439,-0.74361 0.0436,1.4986 0.0437,-1.04458 0.044,-0.44577 0.0437,1.33711 0.044,0.17431 0.0437,-0.42523 0.0439,-0.15929 0.0439,-0.67734 0.0436,-0.0927 0.044,1.51793 0.0439,-1.53727 0.0437,0.56032 0.0436,-0.0616 0.044,-0.92828 0.0436,1.47632 0.0437,0.55995 0.0439,-0.61403 0.0437,-0.25128 0.0437,-1.19387 0.0439,1.13549 0.0437,0.10419 0.0436,0.39986 0.0437,0.34725 0.0439,-2.41496 0.0437,0.93039 0.0437,0.76899 0.0439,0.73492 0.0437,-0.77001 0.0436,-0.73317 0.0437,0.736 0.0439,0.69203 0.0437,0.34834 0.0437,-1.37295 0.0439,0.45722 0.0437,0.54163 0.0437,1.12733 0.0436,-2.00337 0.0439,-1.51216 0.0436,2.57434 0.0437,-1.33355 0.044,-0.89711 0.0437,1.38293 0.0437,0.5288 0.0439,-0.49407 0.0437,0.60569 0.0436,-0.56628 0.0437,-0.0863 0.044,0.16432 0.0437,1.5852 0.0437,-1.13091 0.044,-1.54973 0.0437,1.95857 0.044,-1.30844 0.0437,-0.3082 0.0439,1.15666 0.0439,-0.54886 0.0437,-1.69288 0.0439,0.79475 0.044,0.66901 0.0436,-0.37299 0.0437,-0.0293 0.0439,0.85414 0.0437,0.63401 0.0437,-0.67626 0.0439,0.0183 0.044,0.93047 0.0437,-0.70595 0.0437,-0.90005 0.0439,0.20547 0.0437,0.41066 0.0436,1.82935 0.0439,-2.49735 0.0436,-1.01452 0.0437,2.16082 0.044,-0.0395 0.0437,-1.12083 0.0437,2.29646 0.0436,-2.54849 0.044,-0.96301 0.0436,3.13777 0.0437,-0.45181 0.0439,-0.80291 0.0437,1.61489 0.0437,-1.53049 0.0437,-0.34294 0.044,-0.52402 0.0437,0.0669 0.0436,0.41782 0.0439,-0.63979 0.0436,1.15309 0.0437,-0.5298 0.0437,-0.56812 0.0439,0.0945 0.0437,1.46807 0.0436,-0.004 0.0439,0.0935 0.0436,-2.84102 0.0437,1.54579 0.0439,-0.13921 0.0437,-0.52238 0.0437,0.62796 0.0437,1.55615 0.044,-1.77885 0.0437,-0.17679 0.0436,0.62109 0.0439,-0.56812 0.0436,-0.13289 0.0437,-0.19327 0.0437,0.39591 0.044,-0.72667 0.0439,0.90711 0.0437,-0.78824 0.0439,2.71638 0.0439,-2.14075 0.0437,1.00984 0.0437,-0.42056 0.0439,-0.30967 0.0437,-0.84314 0.0437,1.27268 0.0439,-0.42597 0.0437,0.96045 0.0436,0.84021 0.0437,-1.82357 0.0439,1.26939 0.0437,-0.98621 0.0437,-0.01 0.0439,0.11998 0.0437,0.54336 0.0436,-0.0723 0.0439,-0.36723 0.0436,-1.79754 0.0437,0.51231 0.0437,3.38483 0.0439,-2.31798 0.0437,0.44814 0.0439,0.26385 0.0439,-0.64977 0.0437,-0.0235 0.044,-0.4969 0.0437,0.15497 0.044,-0.34725 0.0439,0.6286 0.0436,-0.54446 0.0439,1.10616 0.0437,-1.07216 0.0437,-0.54805 0.0437,0.80942 0.044,-0.66269 0.0437,1.55404 0.0436,-0.88704 0.0439,1.54148 0.0436,-0.98987 0.0437,0.63795 0.044,0.79475 0.0437,-1.94747 0.0437,0.12812 0.0436,0.87714 0.0439,-1.2813 0.044,-1.51463 0.0437,2.63482 0.044,-0.30179 0.0439,-0.2896 0.0437,-0.69386 0.0437,1.23658 0.0439,0.21152 0.0437,1.30522 0.0436,-1.70361 0.044,-0.73426 0.0436,1.56439 0.0437,0.8843 0.0437,0.15314 0.044,-2.44787 0.0437,-0.16862 0.0437,1.02918 0.044,-0.80941 0.0436,0.58139 0.0437,-0.9104 0.0437,0.6022 0.044,0.24662 0.0437,-0.78439 0.0437,-0.0898 0.044,-1.07611 0.0437,1.19964 0.0436,-0.5288 0.0439,0.13858 0.0436,-0.29611 0.0439,0.73857 0.0436,-0.68625 0.044,1.39651 0.044,-0.35733 0.0437,0.30435 0.044,-0.3784 0.0436,-1.56082 0.0439,2.98563 0.0436,-2.75368 0.0439,2.5539 0.0436,-0.61219 0.0437,0.25559 0.044,-0.37547 0.0437,-0.50983 0.0437,0.32003 0.0437,-1.43518 0.044,0.95587 0.0437,0.52513 0.0436,0.35486 0.044,-0.89181 0.0436,0.9072 0.0437,-0.92296 0.044,-0.26559 0.0437,1.81889 0.0437,-0.57453 0.0436,-1.94105 0.044,1.81001 0.0436,0.19905 0.0437,-1.10901 0.0439,-0.63621 0.0437,0.12566 0.0437,0.75891 0.0437,-0.14563 0.0439,-0.33551 0.0437,0.46474 0.0436,0.88887 0.0439,0.25743 0.0437,-1.53223 0.0437,-0.44246 0.0437,-0.43825 0.0439,0.91362 0.0437,0.96411 0.0436,-1.64495 0.0439,1.10506 0.0436,1.70654 0.0437,-2.41211 0.0439,-0.34835 0.0437,1.90806 0.0437,-0.42129 0.0436,-1.02277 0.044,0.28602 0.0436,0.67049 0.0437,-0.71851 0.0439,0.75076 0.0437,-1.62386 0.0437,0.26852 0.0437,1.19029 0.044,1.25655 0.0437,-1.13915 0.0436,1.81825 0.0439,-1.6861 0.0436,-0.20199 0.0437,-0.46464 0.0437,0.57563 0.0439,-1.37001 0.0437,-1.20496 0.0436,1.90164 0.0439,0.61569 0.0436,-0.10806 0.0437,1.19214 0.0437,-1.95572 0.0439,0.20436 0.0437,1.59024 0.0437,-0.74719 0.0439,-2.65946 0.0437,2.06019 0.0436,0.0752 0.0439,1.93739 0.0436,-2.03444 0.0437,0.13463 0.0437,0.074 0.0439,-0.50763 0.0437,1.39119 0.0436,-1.38111 0.044,0.54731 0.0436,-0.0844 0.0437,-0.009 0.0437,-0.72318 0.0439,1.67611 0.0437,-1.48924 0.0437,-1.04458 0.0439,1.96572 0.0436,-1.00985 0.0437,1.03275 0.0437,-0.0605 0.0439,-0.75967 0.0437,0.60102 0.0437,0.64977 0.0439,0.18403 0.0437,-0.79155 0.0436,0.0989 0.044,-1.22255 0.0436,-0.3795 0.0437,1.72477 0.0437,-1.9417 0.0439,2.43219 0.0437,-0.33295 0.0436,-1.82898 0.0439,0.86065 0.0436,0.11814 0.0437,0.45712 0.0437,0.63794 0.0439,-1.39576 0.0437,1.38641 0.0437,-1.47274 0.0439,-0.33075 0.0437,2.64407 0.0436,-0.12812 0.0437,-0.85056 0.0439,-0.36768 0.0437,-0.89896 0.0437,1.70553 0.0439,-1.92355 0.0437,0.31435 0.0436,0.45895 0.0437,-0.78439 0.0439,0.88246 0.0437,-1.23145 0.0437,1.32309 0.0439,0.15681 0.0437,0.22737 0.0437,-0.80483 0.0439,-0.74316 0.0437,0.59387 0.0436,1.13742 0.0437,0.0422 0.0439,0.11456 0.0437,-0.10283 0.0437,-0.60495 0.0439,0.004 0.0437,-0.95119 0.0436,1.24904 0.0437,0.83306 0.044,-2.48168 0.0437,1.14273 0.0437,0.70559 0.0439,-0.66508 0.0437,-1.1145 0.0436,0.69632 0.0437,-0.93295 0.044,1.87516 0.0437,-0.55913 0.0437,-0.0136 0.044,-1.448 0.0437,1.75878 0.0437,-1.53864 0.0439,2.12793 0.0437,-1.02644 0.0436,0.14003 0.0437,1.20606 0.044,-0.0523 0.0437,0.0769 0.0437,-0.20043 0.044,-1.06143 0.0437,0.0286 0.0436,-0.16964 0.0437,0.98052 0.044,-1.18956 0.0437,1.18241 0.0437,-0.34945 0.044,0.24846 0.0437,-1.10616 0.0437,1.25297 0.0436,0.22627 0.0439,-1.28377 0.0436,0.019 0.0437,-0.24809 0.0439,0.91005 0.0437,-0.77478 0.0437,0.42176 0.0436,-0.75424 0.0439,-1.37368 0.0436,2.43576 0.0437,-1.0356 0.044,-0.0154 0.0437,0.80832 0.0437,-0.32434 0.0439,-0.20016 0.0437,0.55456 0.0437,0.97977 0.0436,-0.0468 0.044,-0.11814 0.0437,-1.27553 0.0437,0.13354 0.044,-0.89896 0.0437,1.2308 0.0437,-1.27836 0.0436,1.89807 0.044,1.1749 0.0436,-1.13733 0.0437,-0.37876 0.0439,1.20064 0.0437,-1.33811 0.0437,-0.81089 0.0436,0.79549 0.0439,-0.36942 0.0436,-0.49123 0.0437,0.24561 0.0439,-0.17687 0.0437,0.79732 0.0437,1.3646 0.0439,-0.81015 0.0437,-0.86596 0.0437,-1.44341 0.0436,0.28785 0.0439,2.23423 0.0436,-1.08334 0.0437,-0.76964 0.0439,1.99329 0.0437,-1.56375 0.0437,0.63337 0.0436,0.20153 0.0439,0.60568 0.0436,-0.44136 0.0437,-0.25597 0.044,0.87458 0.0437,-1.49218 0.0437,1.53974 0.0437,0.0107 0.044,-1.27259 0.0437,1.43297 0.0436,-1.50565 0.044,-0.83306 0.0436,1.47027 0.0437,1.06218 0.0437,-2.15944 0.0439,0.11639 0.0437,0.44457 0.0436,0.0634 0.044,0.26202 0.0436,-0.0451 0.0437,-0.87246 0.0439,-0.0393 0.0437,-0.72317 0.0437,1.44919 0.0436,-0.95156 0.0439,0.73885 0.0436,-0.36833 0.0437,0.16286 0.0439,0.75791 0.0437,-0.60294 0.0437,1.13916 0.0437,-1.24006 0.0439,-0.004 0.0437,0.1668 0.0436,-1.16739 0.044,1.61453 0.0436,0.5452 0.0437,-1.97112 0.0437,0.2721 0.044,1.46275 0.0437,-1.47164 0.0436,0.74206 0.0439,1.95572 0.0436,-2.45621 0.0437,-0.57351 0.044,1.11092 0.0437,-1.24298 0.0437,1.71121 0.0437,0.13169 0.0439,0.19264 0.0437,-1.19139 0.0436,-1.43701 0.0439,2.81994 0.0436,-1.447 0.0437,1.74484 0.0437,-1.437 0.0439,0.65618 0.0437,-0.88886 0.0436,0.60641 0.0439,-1.05466 0.0436,-0.72492 0.0437,1.73202 0.0437,0.25596 0.0439,-0.76257 0.0437,1.89769 0.0437,-1.16628 0.0439,-0.65838 0.0436,1.01104 0.0437,-0.11098 0.0437,-1.38835 0.044,1.15026 0.0437,-0.65619 0.0437,1.07857 0.044,-1.28587 0.0437,0.44823 0.0436,-0.21802 0.044,0.0128 0.0436,0.63336 0.0437,-0.008 0.0437,-0.18328 0.0439,-0.29612 0.0437,0.55703 0.0436,-0.60027 0.044,-1.73312 0.0436,3.47255 0.0437,-1.51857 0.0437,-0.5223 0.0439,-0.12995 0.0437,-0.1064 0.0437,0.49297 0.0439,-0.23195 0.0437,-0.10348 0.0436,0.23626 0.0437,0.2907 0.0439,0.28429 0.0437,-0.50332 0.0437,-0.46941 0.0439,1.44168 0.0437,-1.63963 0.0436,0.94871 0.0439,1.0511 0.0436,0.2577 0.0437,-0.69303 0.0437,0.23837 0.0439,-0.88886 0.0437,0.39947 0.0437,-1.06144 0.0439,0.73537 0.0437,0.88246 0.0436,-2.97959 0.0437,3.73456 0.0439,-1.73953 0.0437,0.14499 0.0437,-1.43159 0.0439,1.87341 0.0437,-2.00081 0.0436,0.62255 0.0437,1.19571 0.044,-1.24978 0.0437,0.34725 0.0437,-0.0899 0.0439,0.74215 0.0437,0.0909 0.0436,-1.11331 0.0437,1.1914 0.044,-0.86459 0.0437,1.96608 0.0437,-2.18768 0.0439,-1.86041 0.0437,1.37927 0.0437,0.47656 0.0439,1.87974 0.0437,-0.25018 0.0436,-0.26853 0.0437,-0.058 0.044,0.87063 0.0437,-1.89945 0.0437,-0.52522 0.0439,1.33785 0.0437,-0.61934 0.0436,-0.474 0.0437,2.07963 0.044,-2.92552 0.0437,1.4427 0.0437,-0.0652 0.044,1.51573 0.0437,-2.06561 0.0437,0.50048 0.0436,1.12733 0.0439,0.0812 0.0436,-1.37 0.0437,1.16316 0.0439,0.339 0.0437,-1.3987 0.0437,0.31004 0.0439,0.11703 0.0437,0.90179 0.0436,-0.9565 0.0437,0.23626 0.0439,0.44925 0.0437,-1.13018 0.0437,1.03459 0.0439,-2.65488 0.0437,1.86874 0.0437,-1.22787 0.0436,1.84291 0.0439,0.0383 0.0437,-1.75776 0.0437,0.26852 0.0439,1.22182 0.0437,-1.09077 0.0437,2.43145 0.0436,-1.60096 0.0439,-0.53338 0.0436,0.58388 0.0437,0.22517 0.044,1.00343 0.0437,-0.83838 0.0437,-1.57804 0.044,0.99161 0.0437,0.25385 0.0436,0.55162 0.0437,-1.08215 0.044,-0.85708"
         style="fill:none;fill-opacity:1;stroke:#000000;stroke-width:0.15000001;stroke-linecap:butt;stroke-linejoin:round;stroke-miterlimit:10;stroke-dasharray:none;stroke-opacity:1"
         id="path4286"
         inkscape:connector-curvature="0" />
      <text
         inkscape:export-ydpi="1400"
         inkscape:export-xdpi="1400"
         transform="scale(0.77090001,1.2971851)"
         sodipodi:linespacing="125%"
         id="text6402"
         y="360.53955"
         x="360.68518"
         style="font-style:normal;font-weight:normal;font-size:19.27250099px;line-height:125%;font-family:sans-serif;letter-spacing:0px;word-spacing:0px;fill:#000000;fill-opacity:1;stroke:none;stroke-width:1px;stroke-linecap:butt;stroke-linejoin:miter;stroke-opacity:1"
         xml:space="preserve"><tspan
           style="font-style:normal;font-variant:normal;font-weight:normal;font-stretch:normal;font-size:5.00000048px;font-family:SignPainter;-inkscape-font-specification:SignPainter"
           id="tspan6406"
           y="360.53955"
           x="360.68518"
           sodipodi:role="line">Precision IC Lab.  </tspan></text>
    </g>
  </g>
</svg>
